<svg width="22" height="22" viewBox="0 0 22 22" fill="none" xmlns="http://www.w3.org/2000/svg">
<path opacity="0.975" fill-rule="evenodd" clip-rule="evenodd" d="M8.40056 0.646214C9.8437 0.575128 11.2797 0.646929 12.7086 0.861614C14.1664 2.12696 15.8896 2.70136 17.8782 2.58481C18.6476 2.92278 19.2938 3.42538 19.8168 4.09261C20.4717 5.76192 20.6154 7.48512 20.2476 9.26221C19.6732 10.411 18.8116 11.2726 17.6628 11.847C17.4481 13.2759 17.3763 14.7119 17.4474 16.155C12.8521 16.155 8.25697 16.155 3.66176 16.155C3.73285 14.7119 3.66105 13.2759 3.44636 11.847C0.808047 10.2761 -0.0535542 7.97856 0.861561 4.95421C2.12648 2.71253 4.06508 1.77913 6.67736 2.15401C7.20746 1.54884 7.78189 1.04624 8.40056 0.646214ZM7.10816 11.847C7.95451 12.0401 8.0981 12.4709 7.53896 13.1394C7.1574 12.784 7.01382 12.3532 7.10816 11.847ZM10.1238 11.847C10.5917 11.8987 10.8789 12.1859 10.9854 12.7086C10.8418 12.9958 10.6981 13.283 10.5546 13.5702C10.1545 13.0581 10.0109 12.4837 10.1238 11.847ZM13.1394 11.847C13.9857 12.0401 14.1293 12.4709 13.5702 13.1394C13.1886 12.784 13.045 12.3532 13.1394 11.847Z" fill="#F16D00"/>
<path opacity="0.998" fill-rule="evenodd" clip-rule="evenodd" d="M3.66174 17.0166C8.25696 17.0166 12.8521 17.0166 17.4473 17.0166C17.4473 18.1654 17.4473 19.3142 17.4473 20.463C12.8521 20.463 8.25696 20.463 3.66174 20.463C3.66174 19.3142 3.66174 18.1654 3.66174 17.0166Z" fill="black"/>
</svg>
