<svg width="21" height="21" viewBox="0 0 21 21" fill="none" xmlns="http://www.w3.org/2000/svg">
<path d="M17.3456 10.91C17.3456 14.4573 14.4714 17.3362 10.924 17.3407V19.5101C15.6629 19.5101 19.5104 15.6762 19.515 10.9327C19.5241 6.18921 15.6811 2.33713 10.9376 2.33258C10.9331 2.33258 10.9285 2.33258 10.9194 2.33258V4.4792C14.4668 4.48829 17.3365 7.36258 17.3411 10.91H17.3456Z" fill="white"/>
<path d="M17.3455 10.9112C17.3455 7.36379 14.4712 4.4895 10.9238 4.48041V6.62702C11.3149 6.63157 11.6288 6.94993 11.6288 7.34105V10.5337L13.457 11.7525C13.7845 11.9708 13.8754 12.4165 13.6571 12.744C13.4388 13.0714 12.9931 13.1624 12.6657 12.9441L10.9284 11.7844V17.351C14.4758 17.3465 17.35 14.4676 17.35 10.9203L17.3455 10.9112Z" fill="#F16E00"/>
<path d="M19.1237 5.1892C17.1818 2.40132 14.0801 0.914155 10.9238 0.909607V2.3331C10.9238 2.3331 10.9329 2.3331 10.942 2.3331C15.6855 2.3422 19.5239 6.18974 19.5194 10.9332C19.5103 15.6721 15.6673 19.5106 10.9284 19.5106V20.9159C16.4495 20.9113 20.9247 16.4316 20.9247 10.9105C20.9247 8.86391 20.2971 6.86738 19.1283 5.1892H19.1237Z" fill="black"/>
<path d="M12.6613 12.9347C12.9887 13.153 13.4344 13.0666 13.6527 12.7346C13.871 12.4071 13.7846 11.9614 13.4526 11.7431L11.6244 10.5243V7.33164C11.6244 6.94052 11.3106 6.62216 10.9194 6.61761V11.7704L12.6567 12.9301L12.6613 12.9347Z" fill="white"/>
<path d="M2.33744 10.91C2.32834 15.6534 6.17133 19.5055 10.9148 19.5101H10.9239V17.3407C10.9239 17.3407 10.9194 17.3407 10.9148 17.3407C7.36288 17.3407 4.48405 14.4619 4.48405 10.91C4.48405 7.35803 7.36288 4.47465 10.9148 4.47465C10.9148 4.47465 10.9194 4.47465 10.9239 4.47465V2.33258C9.23663 2.33258 7.59028 2.8283 6.18497 3.76063H6.62612C7.02179 3.76063 7.34014 4.07898 7.34014 4.47465C7.34014 4.87032 7.02179 5.18867 6.62612 5.18867H4.48405C4.1657 5.18867 3.90192 4.97947 3.80641 4.6975C2.48297 6.19376 1.61887 8.10843 1.44604 10.2187C1.50062 10.205 1.55974 10.1959 1.62341 10.1959C2.01908 10.1959 2.33744 10.5143 2.33744 10.91Z" fill="white"/>
<path d="M10.519 11.5024C10.3189 11.3705 10.2006 11.1477 10.2006 10.9066V7.33195C10.2006 6.93628 10.519 6.61793 10.9146 6.61793C10.9146 6.61793 10.9192 6.61793 10.9237 6.61793V4.48041C10.9237 4.48041 10.9192 4.48041 10.9146 4.48041C7.36272 4.48041 4.48389 7.35924 4.48389 10.9112C4.48389 14.4631 7.36272 17.3419 10.9146 17.3419C10.9146 17.3419 10.9192 17.3419 10.9237 17.3419V11.7753L10.519 11.5024Z" fill="#F16E00"/>
<path d="M5.19782 2.70149V2.3331C5.19782 1.93744 4.87947 1.61908 4.4838 1.61908C4.08813 1.61908 3.76978 1.93744 3.76978 2.3331V4.47517C3.76978 4.55249 3.78342 4.62526 3.80616 4.69802C3.90166 4.98454 4.16544 5.1892 4.4838 5.1892H6.62587C7.02154 5.1892 7.33989 4.87084 7.33989 4.47517C7.33989 4.07951 7.02154 3.76115 6.62587 3.76115H6.18472C7.59003 2.82883 9.24092 2.3331 10.9236 2.3331V0.909607C8.94531 0.909607 6.94422 1.48264 5.19782 2.70149Z" fill="black"/>
<path d="M10.915 19.5115C6.17149 19.5024 2.33304 15.6548 2.33759 10.9113C2.33759 10.5157 2.01924 10.1973 1.62357 10.1973C1.56445 10.1973 1.50532 10.2064 1.4462 10.2201C1.13694 10.2974 0.909546 10.5748 0.909546 10.9113C0.909546 16.4371 5.38924 20.9168 10.915 20.9168C10.915 20.9168 10.9195 20.9168 10.9241 20.9168V19.5115H10.915Z" fill="black"/>
<path d="M10.2008 7.33518V10.9098C10.2008 11.1509 10.3191 11.3737 10.5192 11.5056L10.9239 11.7785V6.62115C10.9239 6.62115 10.9194 6.62115 10.9148 6.62115C10.5192 6.62115 10.2008 6.93951 10.2008 7.33518Z" fill="white"/>
</svg>
