<svg width="52" height="55" viewBox="0 0 52 55" fill="none" xmlns="http://www.w3.org/2000/svg">
<path fill-rule="evenodd" clip-rule="evenodd" d="M43.41 54.38H5C2.87827 54.38 0.843437 53.5371 -0.656854 52.0369C-2.15715 50.5366 -3 48.5017 -3 46.38V8C-3 5.87827 -2.15715 3.84344 -0.656854 2.34315C0.843437 0.842855 2.87827 0 5 0L43.41 0C45.5317 0 47.5666 0.842855 49.0669 2.34315C50.5671 3.84344 51.41 5.87827 51.41 8V46.41C51.4021 48.5265 50.5557 50.5537 49.0563 52.0475C47.5568 53.5413 45.5265 54.38 43.41 54.38Z" fill="#F4B7D4"/>
<path fill-rule="evenodd" clip-rule="evenodd" d="M19.66 19.24C19.4 20.71 21.13 21.24 21.2 21.24C21.3092 21.2705 21.4054 21.3359 21.474 21.4262C21.5426 21.5164 21.5798 21.6266 21.58 21.74V24.1H29.4V21.76C29.4002 21.6466 29.4374 21.5364 29.506 21.4462C29.5746 21.3559 29.6708 21.2905 29.78 21.26C29.85 21.26 31.58 20.7 31.33 19.26C31.2884 18.9516 31.1754 18.6571 31 18.4C30.751 18.0003 30.3597 17.7099 29.905 17.5874C29.4503 17.4649 28.9661 17.5194 28.55 17.74H28.49H28.34H28.22C28.1449 17.7391 28.0706 17.7256 28 17.7L27.92 17.63C27.6057 17.2318 27.2106 16.9047 26.7608 16.6703C26.3109 16.4358 25.8164 16.2994 25.31 16.27C24.8824 16.3273 24.4708 16.4701 24.0997 16.6901C23.7285 16.91 23.4055 17.2025 23.15 17.55C23.0823 17.6543 22.9801 17.7314 22.8613 17.768C22.7425 17.8046 22.6146 17.7982 22.5 17.75C22.0802 17.5134 21.5851 17.449 21.1188 17.5702C20.6524 17.6915 20.2514 17.989 20 18.4C19.8239 18.6503 19.7076 18.9377 19.66 19.24Z" stroke="white" stroke-width="0.75" stroke-miterlimit="10"/>
<path fill-rule="evenodd" clip-rule="evenodd" d="M12.73 11.57V39.9C13.132 39.629 13.6052 39.4829 14.09 39.48H14.65V11H13.33C13.253 10.9973 13.1762 11.01 13.1042 11.0374C13.0322 11.0647 12.9663 11.1061 12.9104 11.1591C12.8546 11.2122 12.8099 11.2759 12.7789 11.3464C12.7479 11.417 12.7313 11.493 12.73 11.57Z" stroke="white" stroke-width="0.75" stroke-miterlimit="10"/>
<path fill-rule="evenodd" clip-rule="evenodd" d="M15.69 11V39.47H35.69V11H15.69ZM20.53 22.15C19.9054 21.9396 19.3737 21.5178 19.0269 20.9573C18.68 20.3969 18.5396 19.7329 18.63 19.08C18.7118 18.6117 18.9038 18.1696 19.19 17.79C19.543 17.2637 20.0591 16.868 20.659 16.6638C21.2589 16.4597 21.9093 16.4583 22.51 16.66C22.8488 16.2548 23.2644 15.9207 23.733 15.677C24.2015 15.4332 24.7137 15.2847 25.24 15.24C25.8392 15.2482 26.4302 15.3803 26.9757 15.6282C27.5213 15.876 28.0097 16.2341 28.41 16.68C29.0139 16.4613 29.6737 16.4507 30.2843 16.6501C30.8949 16.8494 31.4214 17.2471 31.78 17.78C32.0734 18.1576 32.2722 18.5999 32.36 19.07C32.4478 19.7239 32.3052 20.388 31.9567 20.9482C31.6081 21.5084 31.0754 21.9298 30.45 22.14V26.67C30.45 26.7383 30.4366 26.8059 30.4104 26.869C30.3843 26.9321 30.346 26.9894 30.2977 27.0377C30.2494 27.086 30.1921 27.1243 30.129 27.1504C30.0659 27.1765 29.9983 27.19 29.93 27.19H21.06C20.9212 27.19 20.7878 27.1356 20.6887 27.0383C20.5896 26.9411 20.5326 26.8088 20.53 26.67V24.67V22.13V22.15ZM21.59 30.33C21.5887 30.2609 21.6011 30.1922 21.6267 30.1279C21.6522 30.0637 21.6903 30.0052 21.7387 29.9558C21.7871 29.9065 21.8449 29.8673 21.9087 29.8405C21.9724 29.8138 22.0409 29.8 22.11 29.8H29C29.1035 29.8364 29.1932 29.9041 29.2567 29.9936C29.3201 30.0832 29.3542 30.1902 29.3542 30.3C29.3542 30.4098 29.3201 30.5168 29.2567 30.6064C29.1932 30.6959 29.1035 30.7636 29 30.8H22.1C21.9621 30.8 21.8298 30.7452 21.7323 30.6477C21.6348 30.5502 21.58 30.4179 21.58 30.28L21.59 30.33ZM20.78 32.33H30.38C30.4491 32.33 30.5176 32.3438 30.5813 32.3705C30.6451 32.3973 30.7029 32.4365 30.7513 32.4858C30.7997 32.5352 30.8378 32.5937 30.8633 32.6579C30.8889 32.7222 30.9013 32.7909 30.9 32.86C30.9 32.9283 30.8866 32.9959 30.8604 33.059C30.8343 33.1221 30.796 33.1794 30.7477 33.2277C30.6994 33.276 30.6421 33.3143 30.579 33.3404C30.5159 33.3665 30.4483 33.38 30.38 33.38H20.78C20.7109 33.3813 20.6422 33.3689 20.5779 33.3433C20.5137 33.3178 20.4552 33.2797 20.4058 33.2313C20.3565 33.1829 20.3173 33.1251 20.2905 33.0613C20.2638 32.9976 20.25 32.9291 20.25 32.86C20.2487 32.7896 20.2614 32.7196 20.2874 32.6541C20.3135 32.5886 20.3523 32.529 20.4017 32.4788C20.451 32.4285 20.5099 32.3885 20.5748 32.3613C20.6398 32.334 20.7096 32.32 20.78 32.32V32.33Z" stroke="white" stroke-width="0.75" stroke-miterlimit="10"/>
<path d="M29.4 25.17H21.58V26.12H29.4V25.17Z" stroke="white" stroke-width="0.75" stroke-miterlimit="10"/>
<path fill-rule="evenodd" clip-rule="evenodd" d="M35.64 40.53H14.09C13.7293 40.53 13.3834 40.6733 13.1283 40.9283C12.8733 41.1834 12.73 41.5293 12.73 41.89V42C12.73 42.3607 12.8733 42.7066 13.1283 42.9617C13.3834 43.2167 13.7293 43.36 14.09 43.36H35.64V40.53Z" stroke="white" stroke-width="0.75" stroke-miterlimit="10"/>
<path opacity="0.36" d="M51.37 8V11.18C49.43 11.79 42.37 14.18 38.98 17.7C35 21.74 18.26 38.5 14.3 45.4C12 49.49 7.62 52.55 4 54.31C2.07309 54.0673 0.300284 53.1318 -0.987717 51.6782C-2.27572 50.2246 -2.99095 48.3521 -3 46.41V8C-3 5.87827 -2.15715 3.84344 -0.656854 2.34315C0.843437 0.842855 2.87827 0 5 0L43.41 0C45.5248 0.0105741 47.5494 0.858095 49.041 2.35724C50.5327 3.85639 51.37 5.88518 51.37 8Z" fill="url(#paint0_linear_310_2875)"/>
<defs>
<linearGradient id="paint0_linear_310_2875" x1="-1.69" y1="0.61" x2="31.6" y2="34.8" gradientUnits="userSpaceOnUse">
<stop offset="0.06" stop-color="white"/>
<stop offset="1" stop-opacity="0"/>
</linearGradient>
</defs>
</svg>
