<svg width="24" height="24" viewBox="0 0 24 24" fill="none" xmlns="http://www.w3.org/2000/svg">
<path d="M2.77938 21.222C2.56938 21.012 2.45938 20.732 2.46938 20.442C2.46938 20.152 2.56938 19.872 2.77938 19.662L13.3894 9.06201C13.0494 8.22201 12.9994 7.29201 13.2494 6.42201C13.5094 5.41201 14.0594 4.49201 14.8294 3.78201C15.6994 2.86201 16.8494 2.25201 18.1094 2.06201C19.1794 1.85201 20.2794 2.18201 21.0494 2.95201C21.8094 3.72201 22.1494 4.83201 21.9394 5.89201C21.7494 7.14201 21.1394 8.30201 20.2194 9.17201C19.5094 9.94201 18.5994 10.492 17.5794 10.752C16.7094 11.002 15.7794 10.952 14.9394 10.612L13.5494 12.002L21.2094 19.662C21.4194 19.872 21.5294 20.152 21.5194 20.442C21.5194 20.732 21.4194 21.012 21.2094 21.222C21.0094 21.432 20.7294 21.552 20.4294 21.552C20.1394 21.552 19.8494 21.432 19.6494 21.222L11.9894 13.612L4.32938 21.222C4.12938 21.432 3.84938 21.552 3.54938 21.552C3.25938 21.552 2.96938 21.442 2.76938 21.222H2.77938Z" fill="black"/>
<path d="M6.83106 12.5084L3.50106 9.16842C2.70106 8.39842 2.18106 7.36842 2.04106 6.25842C1.90106 5.16842 2.12106 4.06842 2.67106 3.11842C2.84106 2.80842 3.15106 2.61842 3.50106 2.58842C3.87106 2.54842 4.23106 2.69842 4.47106 2.97842L10.3811 8.94842L6.83106 12.4984V12.5084Z" fill="#F16E00"/>
</svg>
