<svg width="25" height="25" viewBox="0 0 25 25" fill="none" xmlns="http://www.w3.org/2000/svg">
<g clip-path="url(#clip0_2154_1852)">
<path d="M14.9047 2.01412C14.4396 1.56432 13.7189 1.02252 12.9267 1.02252C11.6437 1.02252 10.5448 2.44347 10.4221 2.60193C10.2739 2.80127 10.2483 3.06706 10.3608 3.29196L12.5177 7.65193H17.2866L19.4436 3.29196C19.5561 3.06706 19.5305 2.80127 19.3823 2.60193C19.2596 2.43836 18.1607 1.02252 16.8777 1.02252C16.0906 1.02252 15.3648 1.55921 14.8996 2.01412H14.9047ZM15.5641 8.97577V9.08821C15.5641 10.1003 15.973 11.0867 16.6886 11.8023C16.9442 12.0579 16.9442 12.477 16.6886 12.7326C16.433 12.9882 16.0139 12.9882 15.7583 12.7326C15.421 12.3953 15.1348 12.017 14.9047 11.603C14.6747 12.017 14.3885 12.3953 14.0512 12.7326C13.7956 12.9882 13.3765 12.9882 13.1209 12.7326C12.8653 12.477 12.8653 12.0579 13.1209 11.8023C13.8365 11.0867 14.2454 10.1003 14.2454 9.08821V8.97577H11.7766C10.2585 10.4121 8.75069 12.3646 7.73865 14.2456H13.586C14.6747 14.2456 15.5641 15.1298 15.5641 16.2236V22.8582C15.5641 23.0933 15.5181 23.308 15.4414 23.5175H16.3206C20.1132 23.5175 23.5174 22.6742 23.5174 18.8611C23.5174 15.8147 20.5426 11.4752 17.9869 8.97577H15.5641Z" fill="#F16E00"/>
<path d="M1.68182 23.5124H13.5861C13.949 23.5124 14.2455 23.2159 14.2455 22.853V16.2185C14.2455 15.8556 13.949 15.5591 13.5861 15.5591H1.68182C1.31892 15.5591 1.02246 15.8556 1.02246 16.2185V22.853C1.02246 23.2159 1.31892 23.5124 1.68182 23.5124ZM11.608 18.856C11.9709 18.856 12.2674 19.1524 12.2674 19.5153C12.2674 19.8782 11.9709 20.1747 11.608 20.1747C11.2451 20.1747 10.9487 19.8782 10.9487 19.5153C10.9487 19.1524 11.2451 18.856 11.608 18.856ZM7.65698 17.5372C8.74569 17.5372 9.63507 18.4215 9.63507 19.5153C9.63507 20.6091 8.75081 21.4934 7.65698 21.4934C6.56315 21.4934 5.67889 20.6091 5.67889 19.5153C5.67889 18.4215 6.56315 17.5372 7.65698 17.5372ZM3.70591 18.856C4.06882 18.856 4.36528 19.1524 4.36528 19.5153C4.36528 19.8782 4.06882 20.1747 3.70591 20.1747C3.34301 20.1747 3.04655 19.8782 3.04655 19.5153C3.04655 19.1524 3.34301 18.856 3.70591 18.856Z" fill="black"/>
</g>
<defs>
<clipPath id="clip0_2154_1852">
<rect width="22.495" height="22.495" fill="white" transform="translate(1.02246 1.02252)"/>
</clipPath>
</defs>
</svg>
